<?xml version="1.0" standalone="no"?>
<!DOCTYPE svg PUBLIC "-//W3C//DTD SVG 20010904//EN"
 "http://www.w3.org/TR/2001/REC-SVG-20010904/DTD/svg10.dtd">
<svg version="1.0" xmlns="http://www.w3.org/2000/svg"
 width="192.000000pt" height="192.000000pt" viewBox="0 0 192.000000 192.000000"
 preserveAspectRatio="xMidYMid meet">

<g transform="translate(0.000000,192.000000) scale(0.100000,-0.100000)"
fill="#000000" stroke="none">
<path d="M718 1700 c-230 -29 -338 -139 -368 -372 -13 -108 -13 -774 1 -858
20 -126 70 -200 163 -242 42 -18 69 -22 156 -23 91 0 112 3 153 24 54 26 101
83 117 140 6 20 15 84 22 142 l11 106 156 6 c301 13 389 43 467 159 54 79 69
165 69 383 0 169 -3 199 -24 274 -38 132 -109 208 -228 243 -59 18 -103 21
-348 23 -154 2 -310 0 -347 -5z m677 -163 c55 -25 80 -51 105 -108 41 -95 49
-382 15 -497 -21 -68 -57 -108 -122 -132 -49 -19 -85 -23 -239 -28 l-182 -5
-7 64 c-17 166 -128 261 -249 215 -108 -41 -160 -156 -126 -276 20 -70 102
-130 199 -146 l43 -7 -6 -81 c-9 -99 -21 -150 -42 -167 -9 -8 -51 -14 -102
-17 -102 -4 -144 12 -177 68 -19 34 -20 51 -20 480 0 470 2 493 47 560 25 37
96 76 161 90 23 5 181 8 352 7 273 -2 315 -4 350 -20z m-579 -662 c7 -19 14
-51 14 -71 l0 -36 -37 7 c-69 12 -98 71 -58 115 29 32 64 26 81 -15z"/>
</g>
</svg>
